<?xml version="1.0" encoding="UTF-8" standalone="no"?>
<!DOCTYPE svg PUBLIC "-//W3C//DTD SVG 1.1//EN" "http://www.w3.org/Graphics/SVG/1.1/DTD/svg11.dtd">
<svg width="100%" height="100%" viewBox="0 0 256 256" version="1.1" xmlns="http://www.w3.org/2000/svg" xmlns:xlink="http://www.w3.org/1999/xlink" xml:space="preserve" xmlns:serif="http://www.serif.com/" style="fill-rule:evenodd;clip-rule:evenodd;stroke-linejoin:round;stroke-miterlimit:2;">
    <g transform="matrix(1,0,0,1,-1326,0)">
        <g id="tiktok" transform="matrix(0.22966,0,0,0.312581,799.638,-1.68798e-13)">
            <rect x="2293.27" y="0" width="1114.69" height="818.987" style="fill:none;"/>
            <g id="Tiktok" transform="matrix(6.36725,0,0,4.67815,-1917.39,677.233)">
                <g id="Tiktok1" serif:id="Tiktok">
                    <path id="Tiktok2" serif:id="Tiktok" d="M738.592,14.879C725.808,12.887 715.103,8.425 705.146,0.939C689.366,-10.925 679.129,-28.779 676.664,-48.736C676.023,-53.929 676.341,-64.893 677.28,-69.953C680.599,-87.832 690.129,-103.6 704.348,-114.738C728.645,-133.768 762.679,-135.145 788.828,-118.154C802.221,-109.452 812.805,-95.691 817.926,-80.322C820.779,-71.761 821.318,-68.156 821.336,-57.512C821.354,-46.967 820.731,-42.49 818.146,-34.604C816.347,-29.116 811.536,-19.602 808.156,-14.85C804.501,-9.709 796.3,-1.507 791.151,2.158C783.78,7.406 772.963,12.151 764.118,14.017C756.247,15.678 745.949,16.026 738.592,14.879ZM748.266,-12.109C758.589,-14.296 766.96,-22.445 769.638,-32.914C770.388,-35.849 770.454,-37.725 770.454,-56.288C770.454,-67.388 770.608,-76.566 770.797,-76.683C770.986,-76.799 772.419,-76.431 773.98,-75.864C775.542,-75.297 778.179,-74.623 779.84,-74.365C783.991,-73.721 783.971,-73.682 783.971,-82.062C783.971,-89.339 783.758,-90.028 781.512,-90.046C778.772,-90.069 773.881,-93.519 772.243,-96.584C771.871,-97.281 771.264,-98.992 770.894,-100.386L770.222,-102.92L763.474,-103.041C759.762,-103.107 756.303,-103.057 755.785,-102.93L754.845,-102.698L754.729,-69.439L754.614,-36.181L753.479,-34.031C751.167,-29.648 747.209,-27.311 742.153,-27.342C738.257,-27.367 735.516,-28.618 732.936,-31.548C730.658,-34.137 729.739,-36.956 729.999,-40.567C730.338,-45.29 732.56,-48.637 736.746,-50.729C738.877,-51.794 739.841,-52.021 742.234,-52.021C743.859,-52.021 745.805,-51.742 746.653,-51.387C749.438,-50.224 749.334,-49.936 749.334,-58.79L749.334,-66.826L748.172,-67.3C746.302,-68.062 738.549,-67.915 735.395,-67.057C725.672,-64.411 717.827,-56.622 715.148,-46.954C714.084,-43.115 713.99,-37.023 714.932,-33.013C718.359,-18.431 733.446,-8.97 748.266,-12.109Z" style="fill:rgb(9,9,8);fill-rule:nonzero;"/>
                </g>
            </g>
        </g>
    </g>
</svg>
