<?xml version="1.0" encoding="UTF-8" standalone="no"?>
<!DOCTYPE svg PUBLIC "-//W3C//DTD SVG 1.1//EN" "http://www.w3.org/Graphics/SVG/1.1/DTD/svg11.dtd">
<svg width="100%" height="100%" viewBox="0 0 256 256" version="1.1" xmlns="http://www.w3.org/2000/svg" xmlns:xlink="http://www.w3.org/1999/xlink" xml:space="preserve" xmlns:serif="http://www.serif.com/" style="fill-rule:evenodd;clip-rule:evenodd;stroke-linejoin:round;stroke-miterlimit:2;">
    <g transform="matrix(1,0,0,1,-1029,0)">
        <g id="facebook" transform="matrix(0.22966,0,0,0.312581,502.843,-1.68798e-13)">
            <rect x="2293.27" y="0" width="1114.69" height="818.987" style="fill:none;"/>
            <g id="Facebook" transform="matrix(7.74533,0,0,5.69065,-1795.83,777.046)">
                <g id="Facebook1" serif:id="Facebook">
                    <path id="Facebook2" serif:id="Facebook" d="M584.387,-3.421C568.858,-7.589 555.505,-17.322 546.918,-30.731C543.164,-36.594 539.64,-45.654 538.281,-52.938C537.277,-58.314 537.264,-69.768 538.255,-75.136C542.999,-100.827 562.696,-120.634 588.626,-125.788C594.304,-126.916 606.157,-126.82 611.87,-125.598C634.222,-120.82 651.467,-105.871 658.887,-84.841C662.997,-73.193 663.41,-58.639 659.967,-46.764C656.186,-33.72 648.131,-22.115 637.127,-13.856C633.429,-11.081 626.457,-7.216 622.191,-5.576C619.048,-4.367 612.245,-2.6 610.737,-2.6L609.512,-2.6L609.621,-24.248L609.731,-45.896L616.823,-46.012C621.95,-46.096 623.967,-46.271 624.103,-46.646C624.616,-48.065 626.78,-63.652 626.502,-63.93C626.326,-64.107 622.48,-64.303 617.956,-64.367L609.731,-64.482L609.602,-71.029C609.457,-78.413 609.767,-80.035 611.756,-82.3C613.938,-84.786 616.1,-85.495 622.191,-85.726C625.395,-85.847 627.593,-86.111 627.782,-86.398C628.21,-87.048 628.175,-99.833 627.743,-100.514C626.876,-101.88 611.463,-102.611 606.985,-101.498C601.039,-100.019 595.92,-96.243 593.352,-91.441C591.091,-87.214 590.512,-83.672 590.505,-74.024C590.501,-69.24 590.35,-65.093 590.169,-64.809C589.934,-64.439 587.676,-64.258 582.256,-64.175L574.671,-64.059L574.671,-46.319L582.375,-46.203C589.946,-46.09 590.082,-46.072 590.306,-45.147C590.432,-44.63 590.482,-34.893 590.417,-23.509L590.3,-2.811L588.822,-2.719C588.009,-2.668 586.013,-2.984 584.387,-3.421L584.387,-3.421Z" style="fill:rgb(9,9,8);fill-rule:nonzero;"/>
                </g>
            </g>
        </g>
    </g>
</svg>
