<?xml version="1.0" encoding="UTF-8" standalone="no"?>
<!DOCTYPE svg PUBLIC "-//W3C//DTD SVG 1.1//EN" "http://www.w3.org/Graphics/SVG/1.1/DTD/svg11.dtd">
<svg width="100%" height="100%" viewBox="0 0 256 256" version="1.1" xmlns="http://www.w3.org/2000/svg" xmlns:xlink="http://www.w3.org/1999/xlink" xml:space="preserve" xmlns:serif="http://www.serif.com/" style="fill-rule:evenodd;clip-rule:evenodd;stroke-linejoin:round;stroke-miterlimit:2;">
    <g transform="matrix(1,0,0,1,-729,0)">
        <g id="instagram" transform="matrix(0.22966,0,0,0.312581,202.447,-1.68798e-13)">
            <rect x="2293.27" y="0" width="1114.69" height="818.987" style="fill:none;"/>
            <g id="Instagram" transform="matrix(7.58544,0,0,5.57318,-641.085,767.761)">
                <g id="Instagram1" serif:id="Instagram">
                    <path id="Instagram2" serif:id="Instagram" d="M431.879,-1.346C421.604,-2.192 414.536,-5.08 408.4,-10.943C404.672,-14.504 402.277,-18.018 400.462,-22.588C397.633,-29.708 397.073,-36.568 397.077,-64.059C397.08,-90.661 397.577,-97.624 399.966,-104.506C402.982,-113.195 409.803,-120.54 418.072,-124.003C425.805,-127.242 433.276,-127.791 465.903,-127.518C492.161,-127.299 494.247,-127.126 501.295,-124.58C510.102,-121.398 517.541,-113.954 520.731,-105.129C523.457,-97.59 523.55,-96.251 523.556,-64.693C523.561,-34.034 523.442,-31.896 521.35,-25.199C519.953,-20.724 518.667,-18.22 515.894,-14.565C512.881,-10.595 509.237,-7.629 504.553,-5.336C499.886,-3.05 495.143,-1.868 488.502,-1.336C482.662,-0.868 437.589,-0.876 431.879,-1.346L431.879,-1.346ZM487.139,-12.741C493.416,-13.261 495.28,-13.71 499.528,-15.725C505.208,-18.419 509.104,-23.411 510.879,-30.267C511.982,-34.532 512.36,-43.315 512.351,-64.482C512.342,-86.901 511.994,-93.935 510.648,-98.924C508.504,-106.868 503.333,-112.097 495.328,-114.416C490.431,-115.834 483.056,-116.209 460.201,-116.202C432.951,-116.193 427.327,-115.704 421.271,-112.813C418.382,-111.434 414.754,-108.194 413.017,-105.441C411.497,-103.033 409.867,-98.293 409.301,-94.636C408.596,-90.083 408.253,-51.16 408.831,-41.25C409.542,-29.039 410.969,-24.626 415.782,-19.742C419.932,-15.531 425.218,-13.404 433.154,-12.75C438.903,-12.276 481.448,-12.269 487.139,-12.741L487.139,-12.741ZM452.775,-32.568C446.742,-34.102 441.721,-36.939 437.416,-41.244C433.468,-45.192 430.382,-50.601 428.858,-56.245C427.722,-60.456 427.828,-68.556 429.078,-72.906C430.754,-78.741 433.039,-82.553 437.584,-87.098C443.905,-93.419 450.195,-96.235 458.934,-96.657C477.698,-97.562 492.949,-82.902 492.934,-63.972C492.923,-49.964 484.015,-37.828 470.339,-33.19C465.723,-31.625 457.614,-31.338 452.775,-32.568ZM465.677,-43.798C472.803,-45.654 478.924,-51.721 480.758,-58.745C484.104,-71.563 475.338,-84.025 462.129,-85.23C449.594,-86.373 438.428,-75.292 439.451,-62.726C440.515,-49.657 453.154,-40.536 465.677,-43.798ZM490.896,-91.366C485.348,-94.112 485.32,-102.012 490.848,-104.833C493.995,-106.438 497.611,-105.711 499.998,-102.992C503.251,-99.287 501.94,-93.319 497.421,-91.267C495.131,-90.227 493.135,-90.257 490.896,-91.366L490.896,-91.366Z" style="fill:rgb(9,9,8);fill-rule:nonzero;"/>
                </g>
            </g>
        </g>
    </g>
</svg>
