<?xml version="1.0" encoding="UTF-8" standalone="no"?>
<!DOCTYPE svg PUBLIC "-//W3C//DTD SVG 1.1//EN" "http://www.w3.org/Graphics/SVG/1.1/DTD/svg11.dtd">
<svg width="100%" height="100%" viewBox="0 0 256 256" version="1.1" xmlns="http://www.w3.org/2000/svg" xmlns:xlink="http://www.w3.org/1999/xlink" xml:space="preserve" xmlns:serif="http://www.serif.com/" style="fill-rule:evenodd;clip-rule:evenodd;stroke-linejoin:round;stroke-miterlimit:2;">
    <g transform="matrix(1,0,0,1,-439,0)">
        <g id="linkedin" transform="matrix(0.22966,0,0,0.312581,-87.6729,-1.68798e-13)">
            <rect x="2293.27" y="0" width="1114.69" height="818.987" style="fill:none;"/>
            <g id="Linkedin" transform="matrix(7.82909,0,0,5.75219,322.668,779.009)">
                <g id="Linkedin1" serif:id="Linkedin">
                    <path id="Linkedin2" serif:id="Linkedin" d="M272.59,-3.035C267.046,-4.148 262.981,-8.397 261.921,-14.188C261.279,-17.693 261.281,-110.867 261.922,-114.34C262.176,-115.711 262.761,-117.573 263.223,-118.478C264.479,-120.941 267.509,-123.651 270.239,-124.754L272.655,-125.73L322.921,-125.73C380.96,-125.73 375.873,-126.1 380.371,-121.543C384.759,-117.098 384.406,-122.319 384.279,-63.635L384.169,-12.527L383.145,-10.447C381.779,-7.671 379.323,-5.293 376.417,-3.93L374.031,-2.811L324.188,-2.747C296.774,-2.712 273.555,-2.841 272.589,-3.035L272.59,-3.035ZM298.53,-49.381L298.639,-78.632L280.892,-78.632L280.892,-49.557C280.892,-33.566 281.023,-20.351 281.182,-20.192C281.342,-20.032 285.286,-19.953 289.947,-20.016L298.422,-20.13L298.53,-49.381ZM327.814,-37.448C328.086,-56.572 328.204,-57.491 330.799,-60.629C334.782,-65.446 343.386,-65.518 346.83,-60.765C349.001,-57.768 349.056,-57.262 349.302,-38.082L349.532,-20.13L358.161,-20.015C364.782,-19.927 366.869,-20.025 367.131,-20.438C367.59,-21.161 367.55,-55.382 367.084,-60.601C366.048,-72.19 360.038,-78.882 349.301,-80.401C342.389,-81.378 336.114,-79.358 331.214,-74.576C329.712,-73.11 328.324,-72.009 328.131,-72.128C327.937,-72.248 327.779,-73.76 327.779,-75.489L327.779,-78.632L310.883,-78.632L310.883,-49.557C310.883,-33.566 311.013,-20.351 311.173,-20.191C311.333,-20.032 315.087,-19.952 319.516,-20.015L327.567,-20.13L327.814,-37.448ZM293.45,-87.727C297.02,-89.219 299.634,-92.626 300.162,-96.475C300.733,-100.641 298.069,-105.481 294.166,-107.371C291.856,-108.489 287.797,-108.63 285.508,-107.671C276.986,-104.101 276.867,-91.71 285.318,-87.87C287.42,-86.916 291.343,-86.847 293.45,-87.727Z" style="fill:rgb(9,9,8);fill-rule:nonzero;"/>
                </g>
            </g>
        </g>
    </g>
</svg>
