<?xml version="1.0" encoding="UTF-8" standalone="no"?>
<!DOCTYPE svg PUBLIC "-//W3C//DTD SVG 1.1//EN" "http://www.w3.org/Graphics/SVG/1.1/DTD/svg11.dtd">
<svg width="100%" height="100%" viewBox="0 0 256 256" version="1.1" xmlns="http://www.w3.org/2000/svg" xmlns:xlink="http://www.w3.org/1999/xlink" xml:space="preserve" xmlns:serif="http://www.serif.com/" style="fill-rule:evenodd;clip-rule:evenodd;stroke-linejoin:round;stroke-miterlimit:2;">
    <g transform="matrix(1,0,0,1,-1670,0)">
        <g id="youtube" transform="matrix(0.22966,0,0,0.312581,1143.47,-1.68798e-13)">
            <rect x="2293.27" y="0" width="1114.69" height="818.987" style="fill:none;"/>
            <g id="Yutube" transform="matrix(6.10367,0,0,4.48449,-2790.39,684.077)">
                <g id="Yutube1" serif:id="Yutube">
                    <path id="Yutube2" serif:id="Yutube" d="M888.937,-1.789C877.462,-2.23 864.402,-3.341 859.765,-4.269C857.66,-4.69 854.834,-5.557 853.485,-6.195C850.248,-7.726 845.699,-12.057 844.02,-15.206C840.576,-21.669 838.751,-37.566 838.753,-61.103C838.753,-79.114 839.954,-93.969 842.059,-102.041C843.619,-108.025 847.986,-113.403 853.384,-115.987C859.718,-119.02 871.866,-120.152 905.516,-120.847C939.487,-121.548 975.951,-120.333 988.412,-118.085C998.043,-116.347 1004.6,-110.006 1006.72,-100.386C1008.62,-91.782 1009.63,-78.189 1009.64,-61.314C1009.66,-36.296 1007.62,-20.237 1003.63,-14.019C1001.78,-11.135 997.952,-7.701 994.972,-6.248C990.114,-3.878 979.687,-2.614 957.999,-1.766C945.739,-1.286 901.619,-1.301 888.937,-1.789L888.937,-1.789ZM923.151,-44.851C938.365,-53.603 948.557,-59.506 949.917,-60.353C950.755,-60.875 950.823,-61.063 950.339,-61.524C950.022,-61.827 941.399,-66.906 931.177,-72.811C907.139,-86.697 907.908,-86.269 907.587,-85.948C907.226,-85.587 907.227,-36.618 907.587,-36.257C907.739,-36.105 908.452,-36.336 909.171,-36.771C909.891,-37.205 916.182,-40.841 923.151,-44.851Z" style="fill:rgb(9,9,8);fill-rule:nonzero;"/>
                </g>
            </g>
        </g>
    </g>
</svg>
